# xmcd
# 
# Track frame offsets:
#     150
#     10650
#     24438
#     38030
#     50391
#     74809
#     94919
#     113720
#     131397
#     150631
#     168490
#     182956
#     193551
#     204766
#     218577
# 
# Disc length: 3239
# 
# Revision: 1
# Processed by: cddbd v1.5.2PL0 Copyright (c) Steve Scherf et al.
# Submitted via: fre:ac v1.0.27
# 
DISCID=c40ca50f
DTITLE=Various Artist - Memories CD4
DYEAR=2008
DGENRE=Pop
TTITLE0=Louis Armstrong - What A Wonderful World
TTITLE1=B.J. Thomas - Raindrops Keep Falling On My Head
TTITLE2=Engelbert Humperdinck - The Last Waltz
TTITLE3=Patsy Cline - Crazy
TTITLE4=Tom Jobim - The Girl From Ipanema
TTITLE5=Styx - Babe
TTITLE6=Elton John - Sad Songs
TTITLE7=Charlene - I've Never Been to Me
TTITLE8=Player - Baby Come Back
TTITLE9=Walker Brothers - Stand By Me
TTITLE10=Aphrodite's Child - Rain And Tears
TTITLE11=Connie Francis - Lipsitck On Your Collar
TTITLE12=Roger Miller - King Of The Road
TTITLE13=Dana - All Kinds Of Everything
TTITLE14=The Stylistics - You Make Me Feel Brand New
EXTD=
EXTT0=
EXTT1=
EXTT2=
EXTT3=
EXTT4=
EXTT5=
EXTT6=
EXTT7=
EXTT8=
EXTT9=
EXTT10=
EXTT11=
EXTT12=
EXTT13=
EXTT14=
PLAYORDER=
